HIERARCHY
ROOT joint_Root
{
	OFFSET 0.0 0.0 0.0
	CHANNELS 6 Xposition Yposition Zposition Zrotation Xrotation Yrotation 
	JOINT Hips
	{
		OFFSET 4.5925 91.4895 -427.239
		CHANNELS 6 Xposition Yposition Zposition Zrotation Xrotation Yrotation 
		JOINT Spine
		{
			OFFSET 15.7357 0.0 0.0
			CHANNELS 6 Xposition Yposition Zposition Zrotation Xrotation Yrotation 
			JOINT Chest
			{
				OFFSET 8.98455 -0.406207 0.0
				CHANNELS 6 Xposition Yposition Zposition Zrotation Xrotation Yrotation 
				JOINT Neck
				{
					OFFSET 16.3773 0.0 0.0
					CHANNELS 6 Xposition Yposition Zposition Zrotation Xrotation Yrotation 
					JOINT Head
					{
						OFFSET 6.45672 0.0 0.0
						CHANNELS 6 Xposition Yposition Zposition Zrotation Xrotation Yrotation 
						End Site
						{
							OFFSET 0.0 0.0 0.0
						}
					}
				}
				JOINT Shoulder_L
				{
					OFFSET 12.9942 -0.242716 4.98039
					CHANNELS 6 Xposition Yposition Zposition Zrotation Xrotation Yrotation 
					JOINT UpperArm_L
					{
						OFFSET 5.34809 0.0 0.0
						CHANNELS 6 Xposition Yposition Zposition Zrotation Xrotation Yrotation 
						JOINT LowerArm_L
						{
							OFFSET 24.3286 1.87007e-05 0.0
							CHANNELS 6 Xposition Yposition Zposition Zrotation Xrotation Yrotation 
							JOINT Hand_L
							{
								OFFSET 22.2916 0.0 0.0
								CHANNELS 6 Xposition Yposition Zposition Zrotation Xrotation Yrotation 
								End Site
								{
									OFFSET 0.0 0.0 0.0
								}
							}
						}
					}
				}
				JOINT Shoulder_R
				{
					OFFSET 12.9945 -0.242716 -4.98039
					CHANNELS 6 Xposition Yposition Zposition Zrotation Xrotation Yrotation 
					JOINT UpperArm_R
					{
						OFFSET -5.34813 0.0 0.0
						CHANNELS 6 Xposition Yposition Zposition Zrotation Xrotation Yrotation 
						JOINT LowerArm_R
						{
							OFFSET -24.3289 0.000322201 0.0
							CHANNELS 6 Xposition Yposition Zposition Zrotation Xrotation Yrotation 
							JOINT Hand_R
							{
								OFFSET -22.2915 -0.000108084 0.0
								CHANNELS 6 Xposition Yposition Zposition Zrotation Xrotation Yrotation 
								End Site
								{
									OFFSET 0.0 0.0 0.0
								}
							}
						}
					}
				}
			}
		}
		JOINT UpperLeg_L
		{
			OFFSET -2.19248 -6.46944 0.0
			CHANNELS 6 Xposition Yposition Zposition Zrotation Xrotation Yrotation 
			JOINT LowerLeg_L
			{
				OFFSET 39.0811 0.0 -1.23785e-05
				CHANNELS 6 Xposition Yposition Zposition Zrotation Xrotation Yrotation 
				JOINT Foot_L
				{
					OFFSET 40.9854 0.0 -1.26872e-05
					CHANNELS 6 Xposition Yposition Zposition Zrotation Xrotation Yrotation 
					JOINT Toes_L
					{
						OFFSET 11.7543 0.0 0.0
						CHANNELS 6 Xposition Yposition Zposition Zrotation Xrotation Yrotation 
						End Site
						{
							OFFSET 0.0 0.0 0.0
						}
					}
				}
			}
		}
		JOINT UpperLeg_R
		{
			OFFSET -2.19251 6.46944 0.0
			CHANNELS 6 Xposition Yposition Zposition Zrotation Xrotation Yrotation 
			JOINT LowerLeg_R
			{
				OFFSET -39.0811 -0.00228153 -0.0401928
				CHANNELS 6 Xposition Yposition Zposition Zrotation Xrotation Yrotation 
				JOINT Foot_R
				{
					OFFSET -40.9854 0.0 0.0
					CHANNELS 6 Xposition Yposition Zposition Zrotation Xrotation Yrotation 
					JOINT Toes_R
					{
						OFFSET -11.7543 0.0 0.0
						CHANNELS 6 Xposition Yposition Zposition Zrotation Xrotation Yrotation 
						End Site
						{
							OFFSET 0.0 0.0 0.0
						}
					}
				}
			}
		}
	}
}
MOTION
Frames:	6
Frame Time:	0.0333333
0.000000 0.000000 0.000000 0.000000 0.000000 -0.000000 -1.871260 89.389700 485.574000 -88.934800 3.841370 173.037000 15.735700 0.000005 -0.000001 109.735000 83.715700 -111.322000 8.984550 -0.406207 -0.000000 4.135360 4.287830 -3.327150 16.377300 -0.000001 -0.000001 -5.743930 -1.793830 -1.587310 6.456720 -0.000001 -0.000000 -13.847500 -5.010750 1.889690 12.994200 -0.242716 4.980390 -88.104200 -4.978750 -69.123400 5.348090 -0.000007 -0.000001 -75.284300 30.013500 23.526500 24.328600 0.000019 0.000005 24.143800 -5.911270 -102.940000 22.291600 -0.000001 0.000005 8.888780 5.550520 -8.730520 12.994500 -0.242716 -4.980390 89.371500 3.232480 -78.991500 -5.348130 -0.000001 -0.000004 -55.047800 41.870900 -26.351000 -24.328900 0.000322 -0.000009 -5.313140 1.829060 -108.942000 -22.291500 -0.000108 -0.000004 15.579000 5.475770 -5.587400 -2.192480 -6.469440 -0.000000 -179.373000 -8.820370 -28.994900 39.081100 -0.000007 -0.000012 -0.134159 0.163830 39.314100 40.985400 -0.000006 -0.000013 0.524397 0.752811 -67.617600 11.754300 -0.000000 0.000003 -0.000081 -0.000856 -16.610500 -2.192510 6.469440 -0.000001 172.885000 7.339510 -174.649000 -39.081100 -0.002282 -0.040193 0.107899 -0.135460 37.678700 -40.985400 0.000008 0.000006 0.487562 15.580600 -42.683900 -11.754300 -0.000006 -0.000006 -0.046478 -0.284970 -28.299300
0.000000 0.000000 0.000000 0.000000 0.000000 -0.000000 -2.819530 86.480900 480.062000 -88.648400 4.714300 174.212000 15.735700 0.000005 -0.000001 106.221000 83.578800 -107.809000 8.984550 -0.406207 -0.000000 4.624810 3.624650 -3.318920 16.377300 -0.000001 -0.000001 -4.886780 -1.124070 -1.957250 6.456720 -0.000001 -0.000000 -13.256300 -3.998210 0.776469 12.994200 -0.242716 4.980390 -88.834700 -3.033870 -68.976500 5.348090 -0.000007 -0.000001 -70.905600 28.018200 20.768100 24.328600 0.000019 0.000005 22.695000 -7.175600 -106.630000 22.291600 -0.000001 0.000005 11.152600 5.553230 -8.859450 12.994500 -0.242716 -4.980390 89.095700 4.530660 -78.699900 -5.348130 -0.000001 -0.000004 -50.825900 43.759600 -28.806500 -24.328900 0.000322 -0.000009 -4.145360 1.137430 -105.315000 -22.291500 -0.000108 -0.000004 15.328000 5.480150 -5.754330 -2.192480 -6.469440 -0.000000 -179.308000 -8.817680 -29.040500 39.081100 -0.000007 -0.000012 -0.449258 0.372775 50.316600 40.985400 -0.000006 -0.000013 0.692207 -0.582609 -77.384800 11.754300 -0.000000 0.000003 -0.000715 -0.005362 -16.770500 -2.192510 6.469440 -0.000001 172.451000 2.925930 -175.027000 -39.081100 -0.002282 -0.040193 0.118282 -0.114411 45.151700 -40.985400 0.000008 0.000006 -2.318060 14.876800 -41.319200 -11.754300 -0.000006 -0.000006 -0.025622 -0.196649 -24.619700
0.000000 0.000000 0.000000 0.000000 0.000000 -0.000000 -3.893340 83.607200 475.126000 -89.272400 5.736490 174.484000 15.735700 0.000005 -0.000001 102.617000 83.758700 -104.434000 8.984550 -0.406207 -0.000000 4.465900 2.774220 -3.738380 16.377300 -0.000001 -0.000001 -4.601230 -0.870467 -1.885050 6.456720 -0.000001 -0.000000 -11.786800 -2.800150 -1.164100 12.994200 -0.242716 4.980390 -90.573900 1.518890 -69.299600 5.348090 -0.000007 -0.000001 -63.284800 25.278500 16.477000 24.328600 0.000019 0.000005 21.329500 -8.261410 -110.203000 22.291600 -0.000001 0.000005 13.090600 5.548670 -8.643570 12.994500 -0.242716 -4.980390 88.587300 6.885070 -78.375400 -5.348130 -0.000001 -0.000004 -48.209100 45.000800 -28.451000 -24.328900 0.000322 -0.000009 -0.914559 0.171323 -100.599000 -22.291500 -0.000108 -0.000004 14.659700 5.506220 -6.785810 -2.192480 -6.469440 -0.000000 179.380000 -6.684900 -28.548700 39.081100 -0.000007 -0.000012 -0.618280 0.388662 57.847300 40.985400 -0.000006 -0.000013 -0.189047 -3.684900 -85.269400 11.754300 -0.000000 0.000003 -0.001743 -0.011258 -16.963300 -2.192510 6.469440 -0.000001 171.153000 -0.124880 -179.165000 -39.081100 -0.002282 -0.040193 0.138348 -0.090744 56.116900 -40.985400 0.000008 0.000006 -2.999020 11.708600 -42.218800 -11.754300 -0.000006 -0.000006 -0.021946 -0.177840 -23.842800
0.000000 0.000000 0.000000 0.000000 0.000000 -0.000000 -4.765250 81.728700 470.595000 -90.810500 7.044980 174.941000 15.735700 0.000005 -0.000001 100.538000 83.394400 -103.066000 8.984550 -0.406207 -0.000000 5.285640 2.465500 -5.165770 16.377300 -0.000001 -0.000001 -5.342890 -0.755688 -2.105470 6.456720 -0.000001 -0.000000 -11.508100 -3.000510 -2.074330 12.994200 -0.242716 4.980390 -92.099100 5.364450 -68.592500 5.348090 -0.000007 -0.000001 -55.526200 22.845100 5.605610 24.328600 0.000019 0.000005 19.499200 -7.422370 -110.043000 22.291600 -0.000001 0.000005 13.814200 5.552920 -8.844540 12.994500 -0.242716 -4.980390 88.272000 9.023990 -79.112300 -5.348130 -0.000001 -0.000004 -53.723900 43.675300 -20.102300 -24.328900 0.000322 -0.000009 3.991010 -0.426885 -96.099000 -22.291500 -0.000108 -0.000004 15.851600 5.542820 -8.371250 -2.192480 -6.469440 -0.000000 176.974000 -7.426310 -25.773200 39.081100 -0.000007 -0.000012 -0.728810 0.410399 60.617600 40.985400 -0.000006 -0.000013 -0.157700 -4.671740 -90.675900 11.754300 -0.000000 0.000003 -0.001925 -0.012239 -16.994200 -2.192510 6.469440 -0.000001 169.564000 -2.085210 174.849000 -39.081100 -0.002282 -0.040193 0.119119 -0.047921 67.550200 -40.985400 0.000008 0.000006 1.464260 6.489640 -45.275300 -11.754300 -0.000006 -0.000006 -0.021462 -0.175257 -23.736300
0.000000 0.000000 0.000000 0.000000 0.000000 -0.000000 -5.106870 80.838600 466.245000 -90.460300 7.808690 175.147000 15.735700 0.000005 -0.000001 100.671000 83.018300 -103.236000 8.984550 -0.406207 -0.000000 6.024600 2.617650 -5.261660 16.377300 -0.000001 -0.000001 -5.619150 -0.892291 -2.529100 6.456720 -0.000001 -0.000000 -11.424100 -3.608090 -2.234410 12.994200 -0.242716 4.980390 -92.221600 5.893270 -69.302000 5.348090 -0.000007 -0.000001 -55.799600 19.410400 -4.828760 24.328600 0.000019 0.000005 21.692200 -7.877020 -109.010000 22.291600 -0.000001 0.000005 12.364100 5.548970 -8.657480 12.994500 -0.242716 -4.980390 88.271200 9.321810 -79.444800 -5.348130 -0.000001 -0.000004 -62.401700 40.898600 -8.244450 -24.328900 0.000322 -0.000009 -1.637940 0.132330 -94.609300 -22.291500 -0.000108 -0.000004 17.724500 5.541200 -8.297250 -2.192480 -6.469440 -0.000000 177.139000 -8.887480 -21.692000 39.081100 -0.000007 -0.000012 -0.729236 0.414267 60.401600 40.985400 -0.000006 -0.000013 0.078980 -4.274270 -94.355000 11.754300 -0.000000 0.000003 -0.002054 -0.012922 -17.015500 -2.192510 6.469440 -0.000001 170.913000 -2.891810 168.297000 -39.081100 -0.002282 -0.040193 0.064479 -0.014720 76.536800 -40.985400 0.000008 0.000006 5.875720 0.681469 -49.291800 -11.754300 -0.000006 -0.000006 -0.018404 -0.158286 -23.037200
0.000000 0.000000 0.000000 0.000000 0.000000 -0.000000 -5.167140 81.155000 461.850000 -89.744500 7.098330 174.150000 15.735700 0.000005 -0.000001 93.770000 83.362000 -95.934200 8.984550 -0.406207 -0.000000 5.502820 0.913556 -4.367410 16.377300 -0.000001 -0.000001 -5.750210 -0.764061 -2.906770 6.456720 -0.000001 -0.000000 -11.221100 -2.535580 -3.401880 12.994200 -0.242716 4.980390 -91.944100 5.471500 -70.404500 5.348090 -0.000007 -0.000001 -60.468700 16.117200 -10.936300 24.328600 0.000019 0.000005 22.770900 -9.299570 -111.055000 22.291600 -0.000001 0.000005 11.483000 5.548750 -8.647730 12.994500 -0.242716 -4.980390 88.131000 9.239060 -78.511400 -5.348130 -0.000001 -0.000004 -66.303800 40.986100 0.024136 -24.328900 0.000322 -0.000009 -11.604200 1.285170 -96.231800 -22.291500 -0.000108 -0.000004 17.496300 5.542530 -8.358440 -2.192480 -6.469440 -0.000000 178.083000 -9.539490 -17.013300 39.081100 -0.000007 -0.000012 -0.683296 0.457726 56.184500 40.985400 -0.000006 -0.000013 0.492062 -3.153400 -95.658800 11.754300 -0.000000 0.000003 -0.001641 -0.010703 -16.945700 -2.192510 6.469440 -0.000001 173.550000 -1.518670 161.423000 -39.081100 -0.002282 -0.040193 0.014277 -0.001754 81.319100 -40.985400 0.000008 0.000006 9.614840 -3.630890 -54.588400 -11.754300 -0.000006 -0.000006 -0.019605 -0.165092 -23.317400
